<?xml version="1.0" standalone="no"?>
<!DOCTYPE svg PUBLIC "-//W3C//DTD SVG 20010904//EN"
 "http://www.w3.org/TR/2001/REC-SVG-20010904/DTD/svg10.dtd">
<svg version="1.0" xmlns="http://www.w3.org/2000/svg"
 width="360.000000pt" height="360.000000pt" viewBox="0 0 360.000000 360.000000"
 preserveAspectRatio="xMidYMid meet">
<metadata>
Created by potrace 1.16, written by Peter Selinger 2001-2019
</metadata>
<g transform="translate(0.000000,360.000000) scale(0.100000,-0.100000)"
fill="#000000" stroke="none">
<path d="M1440 2675 c0 -3 21 -15 48 -26 167 -71 232 -102 232 -110 0 -5 -40
-69 -88 -142 -117 -175 -117 -174 -26 -84 l80 77 39 -66 38 -67 -28 -156 c-15
-86 -30 -162 -33 -168 -3 -10 12 -13 57 -13 58 0 61 -1 61 -25 0 -24 -2 -25
-65 -25 -36 0 -65 -2 -65 -4 0 -2 -16 -87 -35 -189 -19 -102 -35 -193 -35
-203 0 -21 163 -219 180 -219 17 0 180 198 180 219 0 10 -31 185 -70 388 -38
204 -70 377 -70 386 0 8 17 44 37 79 l37 63 80 -77 c91 -90 91 -91 -26 84 -48
73 -88 137 -88 142 0 4 60 35 133 66 72 32 136 62 141 67 6 4 -153 8 -352 8
-199 0 -362 -2 -362 -5z"/>
<path d="M1070 920 c0 -63 2 -70 20 -70 16 0 20 7 20 32 0 32 0 32 16 10 19
-27 41 -28 49 -2 10 31 22 24 17 -10 -4 -25 -1 -30 17 -30 19 0 21 5 21 70 0
82 -17 93 -51 35 -12 -19 -24 -35 -27 -35 -4 0 -17 16 -30 35 -37 57 -52 47
-52 -35z"/>
</g>
</svg>
