<?xml version="1.0" standalone="no"?>
<!DOCTYPE svg PUBLIC "-//W3C//DTD SVG 20010904//EN"
 "http://www.w3.org/TR/2001/REC-SVG-20010904/DTD/svg10.dtd">
<svg version="1.0" xmlns="http://www.w3.org/2000/svg"
 width="600.000000pt" height="400.000000pt" viewBox="0 0 600.000000 400.000000"
 preserveAspectRatio="xMidYMid meet">
<metadata>
Created by potrace 1.16, written by Peter Selinger 2001-2019
</metadata>
<g transform="translate(0.000000,400.000000) scale(0.100000,-0.100000)"
fill="#000000" stroke="none">
<path d="M2882 3321 c-109 -38 -215 -133 -295 -264 -49 -82 -111 -242 -133
-344 l-17 -83 -219 0 -218 0 0 -985 0 -985 1000 0 1000 0 -2 982 -3 983 -217
3 -217 2 -11 58 c-52 249 -184 483 -330 580 -107 72 -228 91 -338 53z m228
-52 c65 -28 154 -122 203 -216 44 -84 99 -248 118 -350 l13 -72 46 -3 45 -3
-3 -50 c-10 -200 -64 -796 -77 -861 -54 -262 -196 -533 -389 -740 l-71 -77
-74 87 c-198 230 -322 467 -376 719 -11 54 -84 838 -85 914 0 7 19 13 47 15
l46 3 18 85 c69 330 202 529 384 574 34 8 104 -3 155 -25z"/>
<path d="M2620 2477 c-44 -99 -43 -230 2 -326 l23 -50 120 49 c66 28 136 64
157 80 51 41 94 40 157 -3 59 -41 255 -121 276 -114 8 4 24 38 36 77 27 91 23
199 -11 278 -12 28 -26 52 -31 52 -12 0 -174 -67 -230 -95 -25 -13 -51 -31
-58 -39 -23 -28 -94 -21 -143 14 -39 27 -247 120 -270 120 -5 0 -18 -19 -28
-43z"/>
</g>
</svg>
